<svg t="1657044291589" class="icon" viewBox="0 0 1024 1024" version="1.1" xmlns="http://www.w3.org/2000/svg" p-id="1295" width="200" height="200"><path d="M501.12 501.333333A207.146667 207.146667 0 0 0 533.333333 213.333333a199.893333 199.893333 0 0 0-283.093333-32.426666A206.72 206.72 0 0 0 217.813333 469.333333a202.453333 202.453333 0 0 0 34.346667 34.56A341.333333 341.333333 0 0 0 42.666667 818.346667V853.333333a33.706667 33.706667 0 0 0 33.28 34.133334h603.946666a33.706667 33.706667 0 0 0 33.493334-34.133334v-34.986666a338.56 338.56 0 0 0-212.266667-317.013334zM241.706667 341.333333a134.4 134.4 0 1 1 137.173333 135.893334h-4.266667A135.253333 135.253333 0 0 1 241.706667 341.333333zM110.293333 819.2v-1.28a270.933333 270.933333 0 0 1 264.32-272.213333h6.186667a270.506667 270.506667 0 0 1 266.666667 272.213333l-537.173334 1.28z m837.333334-476.586667H658.346667a33.92 33.92 0 0 1 0-67.84h289.28a33.92 33.92 0 0 1 0 67.84z m0 170.666667H718.506667a33.92 33.92 0 0 1 0-67.626667h229.12A33.706667 33.706667 0 0 1 981.333333 478.506667 33.28 33.28 0 0 1 948.266667 512z m0 170.666667h-160.213334a33.92 33.92 0 0 1 0-67.626667h160.853334a33.92 33.92 0 0 1 0 67.626667z" p-id="1296"></path></svg>